<svg width="20" height="21" viewBox="0 0 20 21" fill="none" xmlns="http://www.w3.org/2000/svg">
<path d="M16.9342 13.6633C18.6554 13.5133 20 12.3341 20 10.9062C20 9.47825 18.6554 8.29904 16.9342 8.14901C16.2669 6.47242 15.0048 5.0854 13.3965 4.26193C13.3536 2.42667 11.8578 0.90625 10 0.90625C8.14369 0.90625 6.64655 2.42499 6.60362 4.26197C4.99528 5.08544 3.73314 6.4725 3.06588 8.14904C1.34464 8.29904 0.00012207 9.47825 0.00012207 10.9062C0.00012207 12.3342 1.34484 13.5135 3.06623 13.6633C3.62119 15.0543 4.59735 16.2591 5.83777 17.0974C4.83083 17.8892 4.08185 18.9424 3.69017 20.1377C3.58939 20.4452 3.75701 20.7762 4.0645 20.877C4.372 20.9777 4.70298 20.8101 4.80376 20.5026C5.1736 19.374 5.93789 18.3979 6.97085 17.7257C8.96599 18.6149 11.2248 18.5619 13.1366 17.6765C14.2091 18.3494 15.0008 19.3431 15.3807 20.5026C15.4814 20.8101 15.8123 20.9777 16.1199 20.877C16.4275 20.7762 16.5951 20.4452 16.4943 20.1377C16.0906 18.9057 15.3117 17.829 14.2616 17.031C15.4206 16.2243 16.3776 15.0653 16.9342 13.6633ZM18.8281 10.9062C18.8281 11.5907 18.1829 12.1911 17.308 12.4146C17.5117 11.4239 17.5121 10.3905 17.308 9.39775C18.1829 9.62126 18.8281 10.2217 18.8281 10.9062ZM10 2.07812C11.1279 2.07812 12.0625 2.93573 12.2071 4.04376C10.8059 4.16419 9.64509 5.13254 9.2479 6.44086C8.37951 6.13203 7.7735 5.30551 7.7735 4.34368C7.7735 3.09448 8.77232 2.07812 10 2.07812ZM1.17199 10.9062C1.17199 10.2217 1.81718 9.62126 2.69205 9.39771C2.48838 10.3884 2.48795 11.4218 2.69205 12.4146C1.81718 12.1911 1.17199 11.5907 1.17199 10.9062ZM12.8936 16.4916C9.52259 18.2425 5.32754 16.6419 4.03411 12.9009C3.09451 10.0899 4.24903 7.0023 6.80007 5.4916C7.22772 6.69007 8.30783 7.58276 9.64091 7.72307C9.96364 7.75702 10.2522 7.52217 10.2852 7.19991C10.4072 6.00523 11.451 5.11833 12.6685 5.21024C15.5323 6.55378 16.9851 9.85188 15.9659 12.9008C15.3995 14.5431 14.2624 15.781 12.8936 16.4916Z" fill="url(#paint0_linear_111_19041)"/>
<path d="M8.56151 10.2157C8.79034 9.98688 8.79034 9.61591 8.56151 9.38708C7.7219 8.54747 6.36288 8.54735 5.52315 9.38708C5.29432 9.61591 5.29432 9.98688 5.52315 10.2157C5.75194 10.4445 6.12296 10.4445 6.35179 10.2157C6.73347 9.83407 7.35116 9.83403 7.73284 10.2157C7.96167 10.4445 8.33264 10.4445 8.56151 10.2157Z" fill="url(#paint1_linear_111_19041)"/>
<path d="M14.499 9.38708C13.6594 8.54747 12.3004 8.54735 11.4606 9.38708C11.2318 9.61591 11.2318 9.98688 11.4606 10.2157C11.6894 10.4445 12.0604 10.4445 12.2893 10.2157C12.6709 9.83407 13.2886 9.83403 13.6703 10.2157C13.8991 10.4445 14.2701 10.4446 14.4989 10.2157C14.7278 9.98692 14.7278 9.61591 14.499 9.38708Z" fill="url(#paint2_linear_111_19041)"/>
<path d="M11.1326 13.3044C10.5082 13.9289 9.49214 13.9289 8.86769 13.3044C8.6389 13.0756 8.26788 13.0756 8.03905 13.3044C7.81026 13.5332 7.81026 13.9042 8.03905 14.133C9.12042 15.2144 10.8799 15.2144 11.9613 14.133C12.1901 13.9042 12.1901 13.5332 11.9613 13.3044C11.7324 13.0756 11.3615 13.0756 11.1326 13.3044Z" fill="url(#paint3_linear_111_19041)"/>
<defs>
<linearGradient id="paint0_linear_111_19041" x1="-11.1248" y1="-12.9826" x2="23.7955" y2="-8.83364" gradientUnits="userSpaceOnUse">
<stop stop-color="#F64D4D"/>
<stop offset="1" stop-color="#4D5EF6"/>
</linearGradient>
<linearGradient id="paint1_linear_111_19041" x1="3.47052" y1="7.62537" x2="9.11527" y2="9.01675" gradientUnits="userSpaceOnUse">
<stop stop-color="#F64D4D"/>
<stop offset="1" stop-color="#4D5EF6"/>
</linearGradient>
<linearGradient id="paint2_linear_111_19041" x1="9.40798" y1="7.62537" x2="15.0527" y2="9.01675" gradientUnits="userSpaceOnUse">
<stop stop-color="#F64D4D"/>
<stop offset="1" stop-color="#4D5EF6"/>
</linearGradient>
<linearGradient id="paint3_linear_111_19041" x1="5.49482" y1="11.875" x2="12.4991" y2="13.8349" gradientUnits="userSpaceOnUse">
<stop stop-color="#F64D4D"/>
<stop offset="1" stop-color="#4D5EF6"/>
</linearGradient>
</defs>
</svg>
