<svg width="21" height="15" viewBox="0 0 21 15" fill="none" xmlns="http://www.w3.org/2000/svg">
<path d="M17.1667 12.9165C18.0875 12.9165 18.825 12.1707 18.825 11.2499L18.8333 2.08318C18.8333 1.16236 18.0875 0.416504 17.1666 0.416504H3.83332C2.9125 0.416504 2.16664 1.16232 2.16664 2.08318V11.2499C2.16664 12.1707 2.91246 12.9165 3.83332 12.9165H0.5C0.5 13.8373 1.24582 14.5832 2.16668 14.5832H18.8334C19.7542 14.5832 20.5 13.8374 20.5 12.9165H17.1667ZM3.83332 2.08318H17.1666V11.2499H3.83332V2.08318ZM10.5 13.7498C10.0417 13.7498 9.66668 13.3748 9.66668 12.9165C9.66668 12.4582 10.0417 12.0832 10.5 12.0832C10.9583 12.0832 11.3333 12.4582 11.3333 12.9165C11.3333 13.3748 10.9583 13.7498 10.5 13.7498Z" fill="url(#paint0_linear_111_19008)"/>
<defs>
<linearGradient id="paint0_linear_111_19008" x1="-10.625" y1="-9.42149" x2="23.8194" y2="-3.64388" gradientUnits="userSpaceOnUse">
<stop stop-color="#F64D4D"/>
<stop offset="1" stop-color="#4D5EF6"/>
</linearGradient>
</defs>
</svg>
