<svg width="14" height="21" viewBox="0 0 14 21" fill="none" xmlns="http://www.w3.org/2000/svg">
<path d="M3.48438 0.78125C3.16078 0.78125 2.89844 1.04359 2.89844 1.36719V4.375H1.14062C0.817031 4.375 0.554688 4.63734 0.554688 4.96094V7.30469C0.554688 7.62828 0.817031 7.89062 1.14062 7.89062H1.72656V10.8203C1.72656 13.5401 3.79629 15.7854 6.4434 16.0644C6.72238 18.7115 8.9677 20.7812 11.6875 20.7812C12.0111 20.7812 12.2734 20.5189 12.2734 20.1953C12.2734 19.8717 12.0111 19.6094 11.6875 19.6094C9.61203 19.6094 7.89191 18.0598 7.62277 16.0568C10.2381 15.7477 12.2734 13.5174 12.2734 10.8203V7.89062H12.8594C13.183 7.89062 13.4453 7.62828 13.4453 7.30469V4.96094C13.4453 4.63734 13.183 4.375 12.8594 4.375H11.1016V1.36719C11.1016 1.04359 10.8392 0.78125 10.5156 0.78125C10.192 0.78125 9.92969 1.04359 9.92969 1.36719V4.375H4.07031V1.36719C4.07031 1.04359 3.80797 0.78125 3.48438 0.78125ZM12.2734 6.71875H11.6875C11.3639 6.71875 11.1016 6.98109 11.1016 7.30469V10.8203C11.1016 13.0819 9.2616 14.9219 7 14.9219C4.7384 14.9219 2.89844 13.0819 2.89844 10.8203V7.30469C2.89844 6.98109 2.63609 6.71875 2.3125 6.71875H1.72656V5.54688H12.2734V6.71875Z" fill="url(#paint0_linear_111_18937)"/>
<path d="M8.43391 10.2963L6.81726 9.48803L7.41429 8.891C7.96203 8.3433 7.13422 7.51373 6.58566 8.06236L5.41378 9.23424C5.13132 9.5167 5.20847 9.99385 5.56605 10.1726L7.18269 10.981L6.58566 11.578C6.03664 12.127 6.87203 12.949 7.41429 12.4066L8.58617 11.2347C8.86867 10.9523 8.79149 10.4752 8.43391 10.2963Z" fill="url(#paint1_linear_111_18937)"/>
<defs>
<linearGradient id="paint0_linear_111_18937" x1="-6.61572" y1="-13.1076" x2="16.0763" y2="-11.3699" gradientUnits="userSpaceOnUse">
<stop stop-color="#F64D4D"/>
<stop offset="1" stop-color="#4D5EF6"/>
</linearGradient>
<linearGradient id="paint1_linear_111_18937" x1="3.28676" y1="4.6171" x2="9.46279" y2="5.16574" gradientUnits="userSpaceOnUse">
<stop stop-color="#F64D4D"/>
<stop offset="1" stop-color="#4D5EF6"/>
</linearGradient>
</defs>
</svg>
