<svg width="26" height="26" viewBox="0 0 26 26" fill="none" xmlns="http://www.w3.org/2000/svg">
<g clip-path="url(#clip0_111_3515)">
<path d="M25.9719 7.85007C25.9133 6.52172 25.6985 5.6085 25.3908 4.81717C25.0734 3.9772 24.585 3.22518 23.9451 2.60002C23.32 1.96513 22.563 1.47179 21.7328 1.15931C20.9369 0.851593 20.0284 0.636784 18.7001 0.578217C17.3618 0.514689 16.9369 0.5 13.5427 0.5C10.1485 0.5 9.72366 0.514689 8.39035 0.573257C7.06201 0.631824 6.14878 0.846824 5.35765 1.15435C4.51749 1.47179 3.76546 1.96017 3.1403 2.60002C2.50541 3.22518 2.01227 3.98216 1.69959 4.8124C1.39188 5.6085 1.17707 6.51676 1.1185 7.84511C1.05497 9.18338 1.04028 9.60823 1.04028 13.0024C1.04028 16.3967 1.05497 16.8215 1.11354 18.1548C1.17211 19.4832 1.38711 20.3964 1.69482 21.1877C2.01227 22.0277 2.50541 22.7797 3.1403 23.4049C3.76546 24.0398 4.52245 24.5331 5.35269 24.8456C6.14878 25.1533 7.05704 25.3681 8.38558 25.4267C9.7187 25.4854 10.1437 25.4999 13.538 25.4999C16.9322 25.4999 17.357 25.4854 18.6903 25.4267C20.0187 25.3681 20.9319 25.1533 21.723 24.8456C23.4032 24.196 24.7315 22.8677 25.3811 21.1877C25.6886 20.3916 25.9036 19.4832 25.9622 18.1548C26.0207 16.8215 26.0354 16.3967 26.0354 13.0024C26.0354 9.60823 26.0305 9.18338 25.9719 7.85007ZM23.7206 18.0571C23.6668 19.2781 23.4617 19.9374 23.2908 20.3769C22.8707 21.4661 22.0063 22.3304 20.9172 22.7505C20.4777 22.9215 19.8136 23.1265 18.5974 23.1801C17.2788 23.2389 16.8833 23.2534 13.5477 23.2534C10.212 23.2534 9.8116 23.2389 8.49776 23.1801C7.27681 23.1265 6.61751 22.9215 6.17797 22.7505C5.63598 22.5502 5.14265 22.2328 4.74222 21.8176C4.3271 21.4123 4.00965 20.9239 3.80934 20.3819C3.63841 19.9424 3.43333 19.2781 3.37972 18.0621C3.32096 16.7435 3.30647 16.3478 3.30647 13.0122C3.30647 9.67652 3.32096 9.27609 3.37972 7.96243C3.43333 6.74149 3.63841 6.08218 3.80934 5.64264C4.00965 5.10047 4.3271 4.60732 4.74718 4.2067C5.15238 3.79158 5.64075 3.47414 6.18293 3.27402C6.62247 3.10309 7.28673 2.89801 8.50272 2.84421C9.82133 2.78564 10.217 2.77095 13.5525 2.77095C16.8931 2.77095 17.2885 2.78564 18.6024 2.84421C19.8233 2.89801 20.4826 3.10309 20.9222 3.27402C21.4642 3.47414 21.9575 3.79158 22.3579 4.2067C22.773 4.61209 23.0905 5.10047 23.2908 5.64264C23.4617 6.08218 23.6668 6.74626 23.7206 7.96243C23.7792 9.28105 23.7939 9.67652 23.7939 13.0122C23.7939 16.3478 23.7792 16.7385 23.7206 18.0571Z" fill="white"/>
<path d="M13.5421 6.58032C9.99665 6.58032 7.12 9.45679 7.12 13.0025C7.12 16.5482 9.99665 19.4246 13.5421 19.4246C17.0878 19.4246 19.9643 16.5482 19.9643 13.0025C19.9643 9.45679 17.0878 6.58032 13.5421 6.58032ZM13.5421 17.1684C11.242 17.1684 9.37626 15.3028 9.37626 13.0025C9.37626 10.7021 11.242 8.83659 13.5421 8.83659C15.8425 8.83659 17.708 10.7021 17.708 13.0025C17.708 15.3028 15.8425 17.1684 13.5421 17.1684Z" fill="white"/>
<path d="M21.7177 6.32643C21.7177 7.15438 21.0464 7.82571 20.2183 7.82571C19.3903 7.82571 18.719 7.15438 18.719 6.32643C18.719 5.49828 19.3903 4.82715 20.2183 4.82715C21.0464 4.82715 21.7177 5.49828 21.7177 6.32643Z" fill="white"/>
</g>
<defs>
<clipPath id="clip0_111_3515">
<rect width="25" height="25" fill="white" transform="translate(0.99585 0.5)"/>
</clipPath>
</defs>
</svg>
