<svg width="21" height="17" viewBox="0 0 21 17" fill="none" xmlns="http://www.w3.org/2000/svg">
<path d="M20.3716 5.86821L17.5769 2.28145C16.8973 1.40932 15.8735 0.90918 14.7678 0.90918H12.9245C12.669 0.90918 12.4407 1.06879 12.353 1.30882C12.0698 2.08332 11.3252 2.60372 10.5001 2.60372C9.67501 2.60372 8.9305 2.08332 8.64727 1.30882C8.55955 1.06879 8.33126 0.90918 8.07575 0.90918H6.2323C5.12674 0.90918 4.10282 1.40932 3.42325 2.28154L0.628638 5.86821C0.50719 6.02409 0.468938 6.22917 0.526141 6.41834C0.583345 6.60751 0.728787 6.75712 0.916306 6.81954L4.78996 8.11009V15.7327C4.78996 16.0688 5.06241 16.3413 5.3985 16.3413H15.6017C15.9378 16.3413 16.2103 16.0688 16.2103 15.7327V8.11009L20.0839 6.81954C20.2714 6.75712 20.4169 6.60751 20.4741 6.41834C20.5313 6.22917 20.493 6.02409 20.3716 5.86821ZM16.2103 6.82728V5.93272C16.2103 5.59663 15.9378 5.32417 15.6017 5.32417C15.2656 5.32417 14.9932 5.59663 14.9932 5.93272V15.1242H6.00696V5.93272C6.00696 5.59663 5.73451 5.32417 5.39842 5.32417C5.06232 5.32417 4.78987 5.59663 4.78987 5.93272V6.82728L2.11783 5.93706L4.38328 3.02961C4.83064 2.45549 5.50448 2.12627 6.2323 2.12627H7.68246C8.22972 3.15488 9.31345 3.82072 10.5 3.82072C11.6866 3.82072 12.7703 3.1548 13.3177 2.12627H14.7678C15.4956 2.12627 16.1695 2.45549 16.6169 3.02952L18.8824 5.93706L16.2103 6.82728Z" fill="url(#paint0_linear_111_18949)"/>
<defs>
<linearGradient id="paint0_linear_111_18949" x1="-10.6249" y1="-9.80755" x2="23.9684" y2="-4.48076" gradientUnits="userSpaceOnUse">
<stop stop-color="#F64D4D"/>
<stop offset="1" stop-color="#4D5EF6"/>
</linearGradient>
</defs>
</svg>
