<svg width="29" height="26" viewBox="0 0 29 26" fill="none" xmlns="http://www.w3.org/2000/svg">
<g clip-path="url(#clip0_111_3519)">
<path d="M27.4889 6.24695C27.6688 5.6366 27.4889 5.18738 26.6236 5.18738H23.7604C23.0313 5.18738 22.6959 5.57312 22.516 6.00281C22.516 6.00281 21.0577 9.57214 18.9966 11.8866C18.3306 12.5555 18.0243 12.7704 17.6597 12.7704C17.4799 12.7704 17.2028 12.5555 17.2028 11.9452V6.24695C17.2028 5.51453 16.9986 5.18738 16.3959 5.18738H11.8945C11.4375 5.18738 11.1653 5.52917 11.1653 5.84656C11.1653 6.53992 12.1959 6.70105 12.3028 8.65417V12.8925C12.3028 13.8202 12.1375 13.9911 11.7729 13.9911C10.8007 13.9911 8.43822 10.4071 7.03822 6.30554C6.75628 5.50964 6.47919 5.18738 5.74516 5.18738H2.88197C2.0653 5.18738 1.90002 5.57312 1.90002 6.00281C1.90002 6.76453 2.87225 10.5487 6.42572 15.5487C8.79308 18.9618 12.1278 20.8124 15.1611 20.8124C16.9841 20.8124 17.2077 20.4022 17.2077 19.6942C17.2077 16.4325 17.0424 16.1249 17.9563 16.1249C18.3792 16.1249 19.1084 16.3397 20.8097 17.9852C22.7542 19.9384 23.075 20.8124 24.1639 20.8124H27.0271C27.8438 20.8124 28.257 20.4022 28.0188 19.5917C27.4743 17.8876 23.7945 14.3817 23.6292 14.1473C23.2063 13.6005 23.3278 13.3563 23.6292 12.868C23.6341 12.8632 27.1292 7.92175 27.4889 6.24695V6.24695Z" fill="white"/>
</g>
<defs>
<clipPath id="clip0_111_3519">
<rect width="28" height="25" fill="white" transform="translate(0.99585 0.5)"/>
</clipPath>
</defs>
</svg>
