<svg width="20" height="16" viewBox="0 0 20 16" fill="none" xmlns="http://www.w3.org/2000/svg">
<path d="M18.2422 0.445312H1.75781C0.788555 0.445312 0 1.23387 0 2.20312V12.6719C0 13.6411 0.788555 14.4297 1.75781 14.4297H2.53906V15.0938C2.53906 15.4173 2.80141 15.6797 3.125 15.6797C3.44859 15.6797 3.71094 15.4173 3.71094 15.0938V14.4297H16.2891V15.0938C16.2891 15.4173 16.5514 15.6797 16.875 15.6797C17.1986 15.6797 17.4609 15.4173 17.4609 15.0938V14.4297H18.2422C19.2114 14.4297 20 13.6411 20 12.6719V2.20312C20 1.23387 19.2114 0.445312 18.2422 0.445312ZM13.7891 13.2578H1.75781C1.43473 13.2578 1.17188 12.995 1.17188 12.6719V2.20312C1.17188 1.88004 1.43473 1.61719 1.75781 1.61719H13.7891V13.2578ZM18.8281 12.6719C18.8281 12.995 18.5653 13.2578 18.2422 13.2578H14.9609V4.42969H18.8281V12.6719ZM18.8281 3.25781H14.9609V1.61719H18.2422C18.5653 1.61719 18.8281 1.88004 18.8281 2.20312V3.25781Z" fill="url(#paint0_linear_111_19023)"/>
<path d="M16.3004 11.4581C16.3663 11.7756 16.6653 11.979 16.9894 11.9183C17.3078 11.852 17.51 11.5519 17.4496 11.2292C17.3759 10.8776 17.026 10.6855 16.705 10.7831C16.4037 10.8793 16.2458 11.1666 16.3004 11.4581Z" fill="url(#paint1_linear_111_19023)"/>
<path d="M16.3004 8.95813C16.3663 9.27563 16.6653 9.47903 16.9894 9.41828C17.3078 9.35196 17.51 9.05192 17.4496 8.72923C17.3759 8.37755 17.0259 8.18556 16.705 8.28313C16.4037 8.3793 16.2458 8.66657 16.3004 8.95813Z" fill="url(#paint2_linear_111_19023)"/>
<path d="M16.3004 6.45813C16.3663 6.77563 16.6653 6.97902 16.9894 6.91828C17.3078 6.85196 17.51 6.55192 17.4496 6.22922C17.3759 5.87755 17.0259 5.68556 16.705 5.78313C16.4037 5.8793 16.2458 6.16657 16.3004 6.45813Z" fill="url(#paint3_linear_111_19023)"/>
<path d="M4.29688 11.9297H10.7031C11.6724 11.9297 12.4609 11.1411 12.4609 10.1719V4.70312C12.4609 3.73387 11.6724 2.94531 10.7031 2.94531H4.29688C3.32762 2.94531 2.53906 3.73387 2.53906 4.70312V10.1719C2.53906 11.1411 3.32762 11.9297 4.29688 11.9297ZM3.71094 4.70312C3.71094 4.38004 3.97379 4.11719 4.29688 4.11719H10.7031C11.0262 4.11719 11.2891 4.38004 11.2891 4.70312V10.1719C11.2891 10.495 11.0262 10.7578 10.7031 10.7578H4.29688C3.97379 10.7578 3.71094 10.495 3.71094 10.1719V4.70312Z" fill="url(#paint4_linear_111_19023)"/>
<defs>
<linearGradient id="paint0_linear_111_19023" x1="-11.125" y1="-10.1341" x2="23.4474" y2="-4.74148" gradientUnits="userSpaceOnUse">
<stop stop-color="#F64D4D"/>
<stop offset="1" stop-color="#4D5EF6"/>
</linearGradient>
<linearGradient id="paint1_linear_111_19023" x1="15.6386" y1="9.94449" x2="17.6824" y2="10.1872" gradientUnits="userSpaceOnUse">
<stop stop-color="#F64D4D"/>
<stop offset="1" stop-color="#4D5EF6"/>
</linearGradient>
<linearGradient id="paint2_linear_111_19023" x1="15.6386" y1="7.44449" x2="17.6824" y2="7.68719" gradientUnits="userSpaceOnUse">
<stop stop-color="#F64D4D"/>
<stop offset="1" stop-color="#4D5EF6"/>
</linearGradient>
<linearGradient id="paint3_linear_111_19023" x1="15.6386" y1="4.94449" x2="17.6824" y2="5.18719" gradientUnits="userSpaceOnUse">
<stop stop-color="#F64D4D"/>
<stop offset="1" stop-color="#4D5EF6"/>
</linearGradient>
<linearGradient id="paint4_linear_111_19023" x1="-2.97998" y1="-3.29384" x2="14.2911" y2="-1.02767" gradientUnits="userSpaceOnUse">
<stop stop-color="#F64D4D"/>
<stop offset="1" stop-color="#4D5EF6"/>
</linearGradient>
</defs>
</svg>
