<svg width="44" height="44" viewBox="0 0 44 44" fill="none" xmlns="http://www.w3.org/2000/svg">
<g opacity="0.6" filter="url(#filter0_d_111_137285)">
<rect x="8" y="8" width="28" height="28" rx="4" fill="white"/>
<rect x="8.25" y="8.25" width="27.5" height="27.5" rx="3.75" stroke="#FF4343" stroke-width="0.5"/>
</g>
<path d="M27.25 16H24.5V15.5C24.5 14.6729 23.8271 14 23 14H21C20.1729 14 19.5 14.6729 19.5 15.5V16H16.75C16.0608 16 15.5 16.5608 15.5 17.25V19C15.5 19.2761 15.7239 19.5 16 19.5H16.2733L16.7052 28.5713C16.7434 29.3725 17.4015 30 18.2035 30H25.7965C26.5985 30 27.2567 29.3725 27.2948 28.5713L27.7268 19.5H28C28.2761 19.5 28.5 19.2761 28.5 19V17.25C28.5 16.5608 27.9392 16 27.25 16ZM20.5 15.5C20.5 15.2243 20.7243 15 21 15H23C23.2757 15 23.5 15.2243 23.5 15.5V16H20.5V15.5ZM16.5 17.25C16.5 17.1122 16.6122 17 16.75 17H27.25C27.3878 17 27.5 17.1122 27.5 17.25V18.5C27.3459 18.5 17.1385 18.5 16.5 18.5V17.25ZM26.2959 28.5238C26.2832 28.7908 26.0638 29 25.7965 29H18.2035C17.9362 29 17.7168 28.7908 17.7041 28.5238L17.2744 19.5H26.7256L26.2959 28.5238Z" fill="#FF4343"/>
<path d="M22 28C22.2761 28 22.5 27.7761 22.5 27.5V21C22.5 20.7239 22.2761 20.5 22 20.5C21.7239 20.5 21.5 20.7239 21.5 21V27.5C21.5 27.7761 21.7238 28 22 28Z" fill="#FF4343"/>
<path d="M24.5 28C24.7761 28 25 27.7761 25 27.5V21C25 20.7239 24.7761 20.5 24.5 20.5C24.2239 20.5 24 20.7239 24 21V27.5C24 27.7761 24.2238 28 24.5 28Z" fill="#FF4343"/>
<path d="M19.5 28C19.7761 28 20 27.7761 20 27.5V21C20 20.7239 19.7761 20.5 19.5 20.5C19.2239 20.5 19 20.7239 19 21V27.5C19 27.7761 19.2238 28 19.5 28Z" fill="#FF4343"/>
<defs>
<filter id="filter0_d_111_137285" x="0" y="0" width="44" height="44" filterUnits="userSpaceOnUse" color-interpolation-filters="sRGB">
<feFlood flood-opacity="0" result="BackgroundImageFix"/>
<feColorMatrix in="SourceAlpha" type="matrix" values="0 0 0 0 0 0 0 0 0 0 0 0 0 0 0 0 0 0 127 0" result="hardAlpha"/>
<feOffset/>
<feGaussianBlur stdDeviation="4"/>
<feColorMatrix type="matrix" values="0 0 0 0 0 0 0 0 0 0 0 0 0 0 0 0 0 0 0.08 0"/>
<feBlend mode="normal" in2="BackgroundImageFix" result="effect1_dropShadow_111_137285"/>
<feBlend mode="normal" in="SourceGraphic" in2="effect1_dropShadow_111_137285" result="shape"/>
</filter>
</defs>
</svg>
