<svg width="17" height="21" viewBox="0 0 17 21" fill="none" xmlns="http://www.w3.org/2000/svg">
<path d="M16.5643 18.2573L11.9372 8.07777L12.4845 5.34127L15.1351 3.27971C15.4601 3.02694 15.4319 2.52427 15.0766 2.31106C11.6751 0.270129 11.8796 0.361692 11.6803 0.347026C11.5635 0.338634 11.7962 0.30146 8.49989 0.960753C5.0101 0.262796 5.52956 0.365966 5.47564 0.356045C5.34514 0.330203 5.1924 0.349614 5.06018 0.428825L1.92311 2.31106C1.56913 2.52344 1.53831 3.02663 1.86523 3.28022L4.48378 5.31131L5.06143 8.0802L0.435437 18.2573C0.259094 18.6453 0.542175 19.0889 0.970894 19.0889H5.14041L5.09021 19.708C5.06253 20.0503 5.33298 20.3438 5.67649 20.3438H11.3232C11.6665 20.3438 11.9372 20.0505 11.9095 19.708L11.8593 19.0889H16.0288C16.455 19.0889 16.7417 18.6477 16.5643 18.2573ZM11.5895 4.54708C11.4805 4.6319 11.4013 4.75935 11.3739 4.896L10.841 7.5602C10.2584 7.5602 9.67366 7.5602 9.08809 7.5602V4.91059L11.7663 1.69675L13.7353 2.87813L11.5895 4.54708ZM8.49989 2.1488C8.58314 2.1488 8.49024 2.16241 10.1183 1.83678L8.49989 3.77886L6.88148 1.83678C8.52777 2.16605 8.4184 2.1488 8.49989 2.1488ZM5.23346 1.69675L7.91169 4.91059V7.5602C7.32584 7.5602 6.73913 7.5602 6.15466 7.5602C5.54795 4.65198 5.59485 4.78189 5.49838 4.64331C5.42494 4.5381 5.55889 4.65633 3.2655 2.8775L5.23346 1.69675ZM1.88441 17.9125L5.96341 8.93878L5.23581 17.9126H1.88441V17.9125ZM6.31433 19.1674L7.16005 8.73663H9.83965L10.6854 19.1674H6.31433ZM11.7639 17.9125L11.0363 8.93874L15.1153 17.9125H11.7639Z" fill="url(#paint0_linear_111_18910)"/>
<defs>
<linearGradient id="paint0_linear_111_18910" x1="-8.64878" y1="-13.5452" x2="19.834" y2="-10.798" gradientUnits="userSpaceOnUse">
<stop stop-color="#F64D4D"/>
<stop offset="1" stop-color="#4D5EF6"/>
</linearGradient>
</defs>
</svg>
